HIERARCHY
ROOT hip
{
  OFFSET 0.00112043 5.09927 -9.65472
  CHANNELS 6 Xposition Yposition Zposition Zrotation Xrotation Yrotation
  JOINT abdomen
  {
    OFFSET 0 -1.186 -1.5018
    CHANNELS 3 Zrotation Xrotation Yrotation
    JOINT abdomen2
    {
      OFFSET 0 9.964 0.2134
      CHANNELS 3 Zrotation Xrotation Yrotation
      JOINT chest
      {
        OFFSET 0 13.134 -3.2573
        CHANNELS 3 Zrotation Xrotation Yrotation
        JOINT neck
        {
          OFFSET 0 20.686 -1.6905
          CHANNELS 3 Zrotation Xrotation Yrotation
          JOINT head
          {
            OFFSET 0 7.238 -0.1237
            CHANNELS 3 Zrotation Xrotation Yrotation
            End Site
            {
              OFFSET 0 0 0
            }
          }
        }
        JOINT lCollar
        {
          OFFSET 1.7069 20.075 5.0056
          CHANNELS 3 Zrotation Xrotation Yrotation
          JOINT lShldr
          {
            OFFSET 13.6458 -0.047 -4.849
            CHANNELS 3 Zrotation Xrotation Yrotation
            JOINT lForeArm
            {
              OFFSET 28.3255 -0.9759 2.2888
              CHANNELS 3 Zrotation Xrotation Yrotation
              JOINT lHand
              {
                OFFSET 22.1583 -0.53 10.8316
                CHANNELS 3 Zrotation Xrotation Yrotation
                JOINT lThumb1
                {
                  OFFSET 0.786 0.112 2.5817
                  CHANNELS 3 Zrotation Xrotation Yrotation
                  JOINT lThumb2
                  {
                    OFFSET 0.3601 -0.878 4.2331
                    CHANNELS 3 Zrotation Xrotation Yrotation
                    JOINT lThumb2_End
                    {
                      OFFSET 1.8127 -1.216 2.2227
                      CHANNELS 3 Zrotation Xrotation Yrotation
                      End Site
                      {
                        OFFSET 0.0181 -0.0122 0.0222
                      }
                    }
                  }
                }
                JOINT lCarpal1
                {
                  OFFSET 0.9571 1.114 1.7695
                  CHANNELS 3 Zrotation Xrotation Yrotation
                  JOINT lIndex1
                  {
                    OFFSET 4.1246 0.487 4.1451
                    CHANNELS 3 Zrotation Xrotation Yrotation
                    JOINT lIndex2
                    {
                      OFFSET 3.4052 -1.454 2.7682
                      CHANNELS 3 Zrotation Xrotation Yrotation
                      JOINT lIndex2_End
                      {
                        OFFSET 1.4531 -1.795 1.2713
                        CHANNELS 3 Zrotation Xrotation Yrotation
                        End Site
                        {
                          OFFSET 0.0145 -0.0179 0.0127
                        }
                      }
                    }
                  }
                  JOINT lMid1
                  {
                    OFFSET 5.6954 0.21 2.1184
                    CHANNELS 3 Zrotation Xrotation Yrotation
                    JOINT lMid2
                    {
                      OFFSET 3.9766 -1.54 2.3863
                      CHANNELS 3 Zrotation Xrotation Yrotation
                      JOINT lMid2_End
                      {
                        OFFSET 1.4042 -1.926 1.125
                        CHANNELS 3 Zrotation Xrotation Yrotation
                        End Site
                        {
                          OFFSET 0.014 -0.0193 0.0113
                        }
                      }
                    }
                  }
                }
                JOINT lCarpal2
                {
                  OFFSET 2.0956 0.66 -0.3894
                  CHANNELS 3 Zrotation Xrotation Yrotation
                  JOINT lRing1
                  {
                    OFFSET 5.0395 -0.09 2.4971
                    CHANNELS 3 Zrotation Xrotation Yrotation
                    JOINT lRing2
                    {
                      OFFSET 3.7921 -1.552 1.4806
                      CHANNELS 3 Zrotation Xrotation Yrotation
                      JOINT lRing2_End
                      {
                        OFFSET 1.4655 -1.808 0.9609
                        CHANNELS 3 Zrotation Xrotation Yrotation
                        End Site
                        {
                          OFFSET 0.0147 -0.0181 0.0096
                        }
                      }
                    }
                  }
                  JOINT lPinky1
                  {
                    OFFSET 4.9141 -1.269 0.3591
                    CHANNELS 3 Zrotation Xrotation Yrotation
                    JOINT lPinky2
                    {
                      OFFSET 3.1477 -1.685 0.8462
                      CHANNELS 3 Zrotation Xrotation Yrotation
                      JOINT lPinky2_End
                      {
                        OFFSET 0.8055 -1.585 0.7955
                        CHANNELS 3 Zrotation Xrotation Yrotation
                        End Site
                        {
                          OFFSET 0.0081 -0.0158 0.008
                        }
                      }
                    }
                  }
                }
              }
            }
          }
        }
        JOINT rCollar
        {
          OFFSET -1.7069 20.075 5.0056
          CHANNELS 3 Zrotation Xrotation Yrotation
          JOINT rShldr
          {
            OFFSET -13.6458 -0.047 -4.849
            CHANNELS 3 Zrotation Xrotation Yrotation
            JOINT rForeArm
            {
              OFFSET -28.3255 -0.9759 2.2888
              CHANNELS 3 Zrotation Xrotation Yrotation
              JOINT rHand
              {
                OFFSET -22.1583 -0.53 10.8316
                CHANNELS 3 Zrotation Xrotation Yrotation
                JOINT rThumb1
                {
                  OFFSET -0.786 0.112 2.5817
                  CHANNELS 3 Zrotation Xrotation Yrotation
                  JOINT rThumb2
                  {
                    OFFSET -0.3601 -0.878 4.2331
                    CHANNELS 3 Zrotation Xrotation Yrotation
                    JOINT rThumb2_End
                    {
                      OFFSET -1.8127 -1.216 2.2227
                      CHANNELS 3 Zrotation Xrotation Yrotation
                      End Site
                      {
                        OFFSET -0.0181 -0.0122 0.0222
                      }
                    }
                  }
                }
                JOINT rCarpal1
                {
                  OFFSET -0.9571 1.114 1.7695
                  CHANNELS 3 Zrotation Xrotation Yrotation
                  JOINT rIndex1
                  {
                    OFFSET -4.1246 0.487 4.1451
                    CHANNELS 3 Zrotation Xrotation Yrotation
                    JOINT rIndex2
                    {
                      OFFSET -3.4052 -1.454 2.7682
                      CHANNELS 3 Zrotation Xrotation Yrotation
                      JOINT rIndex2_End
                      {
                        OFFSET -1.4531 -1.795 1.2713
                        CHANNELS 3 Zrotation Xrotation Yrotation
                        End Site
                        {
                          OFFSET -0.0145 -0.018 0.0127
                        }
                      }
                    }
                  }
                  JOINT rMid1
                  {
                    OFFSET -5.6954 0.21 2.1184
                    CHANNELS 3 Zrotation Xrotation Yrotation
                    JOINT rMid2
                    {
                      OFFSET -3.9766 -1.54 2.3863
                      CHANNELS 3 Zrotation Xrotation Yrotation
                      JOINT rMid2_End
                      {
                        OFFSET -1.4042 -1.926 1.125
                        CHANNELS 3 Zrotation Xrotation Yrotation
                        End Site
                        {
                          OFFSET -0.014 -0.0193 0.0113
                        }
                      }
                    }
                  }
                }
                JOINT rCarpal2
                {
                  OFFSET -2.0956 0.66 -0.3894
                  CHANNELS 3 Zrotation Xrotation Yrotation
                  JOINT rRing1
                  {
                    OFFSET -5.0395 -0.09 2.4971
                    CHANNELS 3 Zrotation Xrotation Yrotation
                    JOINT rRing2
                    {
                      OFFSET -3.7921 -1.552 1.4806
                      CHANNELS 3 Zrotation Xrotation Yrotation
                      JOINT rRing2_End
                      {
                        OFFSET -1.4655 -1.808 0.9609
                        CHANNELS 3 Zrotation Xrotation Yrotation
                        End Site
                        {
                          OFFSET -0.0147 -0.0181 0.0096
                        }
                      }
                    }
                  }
                  JOINT rPinky1
                  {
                    OFFSET -4.9141 -1.269 0.3592
                    CHANNELS 3 Zrotation Xrotation Yrotation
                    JOINT rPinky2
                    {
                      OFFSET -3.1477 -1.685 0.8462
                      CHANNELS 3 Zrotation Xrotation Yrotation
                      JOINT rPinky2_End
                      {
                        OFFSET -0.8055 -1.585 0.7955
                        CHANNELS 3 Zrotation Xrotation Yrotation
                        End Site
                        {
                          OFFSET -0.0081 -0.0158 0.008
                        }
                      }
                    }
                  }
                }
              }
            }
          }
        }
      }
    }
  }
  JOINT lThigh
  {
    OFFSET 8.367 -8.2066 0.5982
    CHANNELS 3 Zrotation Xrotation Yrotation
    JOINT lShin
    {
      OFFSET 2.1923 -43.463 -0.4932
      CHANNELS 3 Zrotation Xrotation Yrotation
      JOINT lFoot
      {
        OFFSET 0.7333 -45.8593 -2.6451
        CHANNELS 3 Zrotation Xrotation Yrotation
        End Site
        {
          OFFSET 2.6618 -4.2699 12.3931
        }
      }
    }
  }
  JOINT rThigh
  {
    OFFSET -8.367 -8.2066 0.5982
    CHANNELS 3 Zrotation Xrotation Yrotation
    JOINT rShin
    {
      OFFSET -2.1923 -43.463 -0.4931
      CHANNELS 3 Zrotation Xrotation Yrotation
      JOINT rFoot
      {
        OFFSET -0.7333 -45.8593 -2.6451
        CHANNELS 3 Zrotation Xrotation Yrotation
        End Site
        {
          OFFSET -2.6618 -4.2699 12.3931
        }
      }
    }
  }
}
MOTION
Frames:	4
Frame Time:	0.0333333
-2.789 49.0505 -27.445 -0 -17.15 -0 2.84132 12.359 0.121749 5.86797 24.7082 -0.416667 5.86797 24.7082 -0.416668 -1.39446 0.904556 7.15424 5.63647 -24.3282 5.59794 12.9881 14.259 -47.2246 -41.7043 -50.3863 -10.8076 38.5189 -18.8184 -75.9785 -14.3634 -24.0361 -36.6356 -1.75424e-006 1.11574e-006 1.69684e-007 1.75424e-006 -1.11574e-006 -1.69684e-007 -1.75424e-006 1.11574e-006 1.69684e-007 1.76556e-031 1.59028e-015 -6.36111e-015 -1.75424e-006 1.11574e-006 1.69684e-007 1.75424e-006 -1.11574e-006 -1.69684e-007 -1.75424e-006 1.11574e-006 1.69684e-007 -1.75424e-006 1.11574e-006 1.69684e-007 1.75424e-006 -1.11574e-006 -1.69684e-007 -1.75424e-006 1.11574e-006 1.69684e-007 1.76556e-031 1.59028e-015 -6.36111e-015 -1.75424e-006 1.11574e-006 1.69684e-007 1.75424e-006 -1.11574e-006 -1.69684e-007 -1.75424e-006 1.11574e-006 1.69684e-007 -1.75424e-006 1.11574e-006 1.69684e-007 1.75424e-006 -1.11574e-006 -1.69684e-007 -1.75424e-006 1.11574e-006 1.69684e-007 -9.92719 4.55432 35.0925 25.1678 -51.4304 -9.58763 -25.8998 -20.2677 88.6944 -2.92357 3.70712 -8.82762 -6.52728e-007 5.26049e-007 1.5548e-007 1.59028e-015 -5.1684e-015 -0 -3.18055e-015 -5.56597e-015 -1.59028e-015 -2.20695e-032 7.95139e-016 1.59028e-015 -6.52728e-007 5.26049e-007 1.5548e-007 -3.18055e-015 3.97569e-016 -0 -3.18055e-015 -6.36111e-015 -0 -6.52728e-007 5.26049e-007 1.5548e-007 -3.18055e-015 3.97569e-016 -0 -3.18055e-015 -6.36111e-015 -0 -2.20695e-032 7.95139e-016 1.59028e-015 -6.52728e-007 5.26049e-007 1.5548e-007 -3.18055e-015 3.97569e-016 -0 -3.18055e-015 -6.36111e-015 -0 -6.52728e-007 5.26049e-007 1.5548e-007 -3.18055e-015 3.97569e-016 -0 -3.18055e-015 -6.36111e-015 -0 9.95664 -0.280455 11.5889 101.043 84.6164 -103.435 27.4146 64.6296 -4.92183 -10.9903 -1.06918 -11.5621 -104.1 84.4096 106.561 -26.4567 62.9581 4.75995 
-2.789 49.0466 -27.6138 -0 -17.1079 -0 2.99212 12.6223 0.1204 6.19101 25.2327 -0.472389 6.19101 25.2328 -0.472391 -1.51879 1.07387 7.5937 5.63083 -24.1699 5.61854 13.0719 13.5956 -46.503 -41.7043 -50.3863 -10.8076 38.3891 -19.4309 -76.8065 -14.2026 -24.4308 -36.3821 3.18055e-015 7.95139e-015 -0 7.61756e-007 1.46243e-006 -2.15744e-007 3.18055e-015 6.36111e-015 -0 3.18055e-015 4.77083e-015 -0 3.18055e-015 1.59028e-015 -0 7.61756e-007 1.46243e-006 -2.15744e-007 3.18055e-015 -4.77083e-015 -0 3.18055e-015 1.59028e-015 -0 7.61756e-007 1.46243e-006 -2.15744e-007 3.18055e-015 -4.77083e-015 -0 3.18055e-015 4.77083e-015 -0 3.18055e-015 1.59028e-015 -0 7.61756e-007 1.46243e-006 -2.15744e-007 3.18055e-015 -4.77083e-015 -0 3.18055e-015 1.59028e-015 -0 7.61756e-007 1.46243e-006 -2.15744e-007 3.18055e-015 -4.77083e-015 -0 -10.4442 3.36684 34.0792 24.6091 -51.2776 -10.5829 -24.8452 -20.6909 90.4804 -2.48118 3.29502 -9.0751 6.49332e-007 -5.29466e-007 -1.56996e-007 -0 -1.15295e-014 -0 -6.36111e-015 -5.1684e-015 -0 1.59028e-015 7.95139e-016 -1.59028e-015 6.49332e-007 -5.29466e-007 -1.56996e-007 1.59028e-015 -1.39149e-014 -3.18055e-015 1.59028e-015 -2.06736e-014 -1.59028e-015 6.49332e-007 -5.29466e-007 -1.56996e-007 1.59028e-015 -1.39149e-014 -3.18055e-015 1.59028e-015 -2.06736e-014 -1.59028e-015 1.59028e-015 7.95139e-016 -1.59028e-015 6.49332e-007 -5.29466e-007 -1.56996e-007 1.59028e-015 -1.39149e-014 -3.18055e-015 1.59028e-015 -2.06736e-014 -1.59028e-015 6.49332e-007 -5.29466e-007 -1.56996e-007 1.59028e-015 -1.39149e-014 -3.18055e-015 1.59028e-015 -2.06736e-014 -1.59028e-015 9.95923 -0.262955 11.587 101.041 84.6164 -103.433 27.4067 64.6271 -4.91539 -10.9922 -1.051 -11.5592 -104.092 84.4098 106.553 -26.4569 62.9583 4.76015 
-2.789 49.0427 -27.7825 -0 -17.0657 -0 3.1412 12.8866 0.11767 6.51225 25.7593 -0.532639 6.51225 25.7593 -0.53264 -1.64473 1.2419 8.03386 5.62505 -24.0116 5.63913 13.1641 12.9331 -45.7823 -41.7043 -50.3863 -10.8076 38.2494 -20.041 -77.6399 -14.0392 -24.8251 -36.1263 -1.46623e-006 7.58822e-007 3.83588e-007 4.77083e-015 6.36111e-015 9.54166e-015 -2.93246e-006 1.51764e-006 7.67176e-007 -1.59028e-015 1.59028e-015 -0 -1.46623e-006 7.58822e-007 3.83588e-007 4.77083e-015 6.36111e-015 1.59028e-014 -2.93246e-006 1.51764e-006 7.67176e-007 -1.46623e-006 7.58822e-007 3.83588e-007 4.77083e-015 6.36111e-015 1.59028e-014 -2.93246e-006 1.51764e-006 7.67176e-007 -1.59028e-015 1.59028e-015 -0 -1.46623e-006 7.58822e-007 3.83588e-007 4.77083e-015 6.36111e-015 1.59028e-014 -2.93246e-006 1.51764e-006 7.67176e-007 -1.46623e-006 7.58822e-007 3.83588e-007 4.77083e-015 6.36111e-015 1.59028e-014 -2.93246e-006 1.51764e-006 7.67176e-007 -10.9829 2.18619 33.0543 24.0566 -51.1187 -11.5724 -23.7763 -21.0811 92.2764 -2.04073 2.88102 -9.31932 6.45891e-007 -5.32951e-007 -1.58231e-007 2.02035e-006 3.20094e-009 5.93687e-006 9.57289e-007 1.16991e-006 -1.03154e-006 7.72434e-032 2.78299e-015 -1.59028e-015 6.45891e-007 -5.32951e-007 -1.58231e-007 2.02035e-006 3.20093e-009 5.93687e-006 9.57289e-007 1.16991e-006 -1.03154e-006 6.45891e-007 -5.32951e-007 -1.58231e-007 2.02035e-006 3.20093e-009 5.93687e-006 9.57289e-007 1.16991e-006 -1.03154e-006 7.72434e-032 2.78299e-015 -1.59028e-015 6.45891e-007 -5.32951e-007 -1.58231e-007 2.02035e-006 3.20093e-009 5.93687e-006 9.57289e-007 1.16991e-006 -1.03154e-006 6.45891e-007 -5.32951e-007 -1.58231e-007 2.02035e-006 3.20093e-009 5.93687e-006 9.57289e-007 1.16991e-006 -1.03154e-006 9.96182 -0.245472 11.585 101.04 84.6164 -103.432 27.3989 64.6244 -4.90891 -10.994 -1.03318 -11.5562 -104.089 84.4098 106.549 -26.4571 62.9584 4.76033 
-2.78901 49.0388 -27.9512 -0 -17.0236 -0 3.28855 13.152 0.113561 6.83169 26.2877 -0.597437 6.83169 26.2877 -0.597437 -1.7718 1.40946 8.47468 5.61915 -23.8534 5.65972 13.2645 12.2718 -45.0622 -41.7043 -50.3863 -10.8076 38.0996 -20.6499 -78.4775 -13.8732 -25.2189 -35.8683 -8.35364e-007 -2.17539e-006 -3.00443e-006 1.05083e-007 9.33353e-007 -2.99306e-006 -7.52605e-008 -1.77808e-006 -6.42574e-008 1.59028e-015 -4.77083e-015 6.36111e-015 -8.35364e-007 -2.17539e-006 -3.00443e-006 1.05083e-007 9.33353e-007 -2.99306e-006 -7.52605e-008 -1.77808e-006 -6.42574e-008 -8.35364e-007 -2.17539e-006 -3.00443e-006 1.05083e-007 9.33353e-007 -2.99306e-006 -7.52605e-008 -1.77808e-006 -6.42574e-008 1.59028e-015 -4.77083e-015 6.36111e-015 -8.35364e-007 -2.17539e-006 -3.00443e-006 1.05083e-007 9.33353e-007 -2.99306e-006 -7.52605e-008 -1.77808e-006 -6.42574e-008 -8.35364e-007 -2.17539e-006 -3.00443e-006 1.05083e-007 9.33353e-007 -2.99306e-006 -7.52605e-008 -1.77808e-006 -6.42574e-008 -11.5432 1.01338 32.0169 23.5105 -50.954 -12.5561 -22.6945 -21.4406 94.0794 -1.60218 2.46515 -9.56025 4.74761e-007 6.51871e-007 3.54105e-006 -3.11528e-008 -1.92544e-006 7.50832e-007 2.14594e-006 2.56965e-006 -2.21804e-007 -0 -4.17448e-015 -0 4.74761e-007 6.51871e-007 3.54105e-006 -3.11528e-008 -1.92544e-006 7.50832e-007 2.14594e-006 2.56965e-006 -2.21804e-007 4.74761e-007 6.51871e-007 3.54105e-006 -3.11528e-008 -1.92544e-006 7.50832e-007 2.14594e-006 2.56965e-006 -2.21804e-007 -0 -4.17448e-015 -0 4.74761e-007 6.51871e-007 3.54105e-006 -3.11528e-008 -1.92544e-006 7.50832e-007 2.14594e-006 2.56965e-006 -2.21804e-007 4.74761e-007 6.51871e-007 3.54105e-006 -3.11528e-008 -1.92544e-006 7.50832e-007 2.14594e-006 2.56965e-006 -2.21804e-007 9.96445 -0.227785 11.5831 101.035 84.6165 -103.428 27.3911 64.6219 -4.90257 -10.9958 -1.01521 -11.5533 -104.083 84.41 106.544 -26.4574 62.9585 4.76051 
